<svg xmlns="http://www.w3.org/2000/svg" xmlns:xlink="http://www.w3.org/1999/xlink" preserveAspectRatio="xMidYMid meet" version="1.0" viewBox="101.0 99.2 223.2 223.2" zoomAndPan="magnify" style="fill: rgb(0, 0, 0);" original_string_length="7901"><g id="__id89_s6bim1g3ik"><circle cx="212.6" cy="210.809" r="111.593" style="fill: rgb(126, 217, 87);"/></g><g id="__id90_s6bim1g3ik"><path d="M160.197 173.35L160.197 149.697 175.249 147.01 177.938 173.35z" style="fill: rgb(255, 255, 255);"/></g><g id="__id91_s6bim1g3ik"><path d="M177.958,177.35c-0.006-0.001-0.013-0.001-0.02,0h-17.74c-2.209,0-4-1.791-4-4v-23.652 c0-1.938,1.389-3.597,3.297-3.938l15.052-2.688c1.097-0.195,2.223,0.074,3.112,0.744s1.458,1.68,1.571,2.787l2.647,25.938 c0.053,0.262,0.082,0.531,0.082,0.809C181.958,175.559,180.167,177.35,177.958,177.35z M164.197,169.35h9.311l-1.801-17.645 l-7.51,1.341V169.35z" style="fill: rgb(47, 107, 37);"/></g><g id="__id92_s6bim1g3ik"><path d="M187.345 171.2L187.345 147.547 202.396 144.859 205.084 171.2z" style="fill: rgb(255, 255, 255);"/></g><g id="__id93_s6bim1g3ik"><path d="M205.104,175.2c-0.006,0-0.013,0-0.02,0h-17.739c-2.209,0-4-1.791-4-4v-23.653 c0-1.938,1.389-3.597,3.297-3.938l15.052-2.688c1.097-0.195,2.223,0.074,3.112,0.744s1.458,1.68,1.571,2.787l2.646,25.938 c0.053,0.262,0.082,0.532,0.082,0.809C209.104,173.409,207.313,175.2,205.104,175.2z M191.345,167.2h9.311l-1.8-17.646 l-7.51,1.341V167.2z" style="fill: rgb(47, 107, 37);"/></g><g id="__id94_s6bim1g3ik"><path d="M158.585,203.088l-3.226-31.178c0,0,72.571-20.966,106.438,10.751L158.585,203.088z" style="fill: rgb(255, 255, 255);"/></g><g id="__id95_s6bim1g3ik"><path d="M158.585,207.088c-0.849,0-1.683-0.271-2.376-0.782c-0.905-0.669-1.486-1.688-1.603-2.806l-3.226-31.178 c-0.199-1.926,1.009-3.718,2.869-4.255c0.983-0.284,24.377-6.953,51.147-6.953c26.042,0,45.938,6.267,59.136,18.627 c1.095,1.025,1.524,2.578,1.111,4.021c-0.413,1.441-1.598,2.532-3.069,2.823l-103.213,20.427 C159.104,207.063,158.844,207.088,158.585,207.088z M159.691,174.912l2.421,23.4l90.374-17.886 c-11.469-7.513-27.26-11.313-47.09-11.313C185.401,169.114,166.928,173.125,159.691,174.912z" style="fill: rgb(47, 107, 37);"/></g><g id="__id96_s6bim1g3ik"><path d="M274.958,291.962c-7.745,0-11.832-3.595-15.115-6.482c-2.962-2.606-5.103-4.489-9.831-4.489 s-6.868,1.883-9.831,4.489c-3.283,2.888-7.37,6.482-15.115,6.482c-7.744,0-11.83-3.595-15.113-6.482 c-2.962-2.606-5.103-4.489-9.83-4.489c-4.726,0-6.866,1.883-9.828,4.489c-3.283,2.888-7.368,6.482-15.112,6.482 c-7.745,0-11.831-3.595-15.114-6.482c-2.962-2.606-5.103-4.489-9.829-4.489c-2.209,0-4-1.791-4-4s1.791-4,4-4 c7.744,0,11.83,3.595,15.113,6.482c2.962,2.606,5.103,4.489,9.83,4.489c4.726,0,6.866-1.883,9.828-4.489 c3.283-2.888,7.368-6.482,15.112-6.482c7.745,0,11.831,3.595,15.114,6.482c2.962,2.606,5.103,4.489,9.829,4.489 c4.728,0,6.868-1.883,9.831-4.489c3.283-2.888,7.37-6.482,15.115-6.482s11.832,3.595,15.115,6.482 c2.962,2.606,5.103,4.489,9.831,4.489c2.209,0,4,1.791,4,4S277.167,291.962,274.958,291.962z" style="fill: rgb(47, 107, 37);"/></g><g id="__id97_s6bim1g3ik"><path d="M223.67,256.051c-6.326,0-12.345-5.582-16.328-9.276c-0.565-0.524-1.085-1.007-1.551-1.42 c-0.618-0.549-1.184-0.771-1.95-0.771c-3.475,0-9.564,4.635-11.565,6.158c-3.567,2.715-7.369,4.092-11.3,4.092 c-6.758,0-11.767-4.152-13.607-5.938c-3.154-3.06-6.728-5.037-9.103-5.037c-0.932,0-1.538,0.29-2.091,1.002 c-4.445,5.714-11.188,9.229-11.473,9.377c-0.574,0.296-1.203,0.444-1.833,0.444c-0.561,0-1.123-0.118-1.647-0.355 c-1.113-0.503-1.936-1.487-2.232-2.672l-9.012-35.939c-0.512-2.042,0.647-4.132,2.65-4.779 c69.494-22.451,153.748-30.734,154.591-30.815c0.128-0.013,0.256-0.019,0.383-0.019c0.99,0,1.95,0.367,2.689,1.039 c0.834,0.759,1.311,1.833,1.311,2.961c0,40.398-26.502,68.2-27.63,69.364c-0.755,0.779-1.793,1.216-2.872,1.216 c-0.078,0-0.155-0.002-0.233-0.007c-1.162-0.067-2.236-0.638-2.943-1.562c-3.343-4.364-11.194-7.615-14.358-8.648 c-1.918,0.025-6.095,3.428-9.148,5.915c-1.497,1.221-3.046,2.482-4.616,3.645C227.983,255.369,225.92,256.051,223.67,256.051z" style="fill: rgb(255, 255, 255);"/></g><g id="__id98_s6bim1g3ik"><path d="M287.601,184.102c0,39.242-26.502,66.58-26.502,66.58c-5-6.528-16.68-10.143-16.68-10.143 c-0.272-0.05-0.549-0.074-0.833-0.074c-4.484,0.001-10.345,6.039-16.164,10.344c-1.18,0.873-2.446,1.242-3.752,1.242 c-5.542,0-11.799-6.651-15.226-9.689c-1.362-1.208-2.882-1.778-4.604-1.778c-3.63,0-8.154,2.534-13.988,6.976 c-3.138,2.389-6.149,3.274-8.877,3.274c-4.749,0-8.636-2.688-10.822-4.809c-3.671-3.561-8.129-6.166-11.889-6.166 c-2.032,0-3.86,0.762-5.248,2.546c-3.956,5.084-10.148,8.277-10.148,8.277l-9.011-35.939 C203.74,192.165,287.601,184.102,287.601,184.102 M287.601,176.102c-0.254,0-0.51,0.012-0.766,0.037 c-0.848,0.081-85.535,8.407-155.438,30.991c-4.007,1.294-6.324,5.474-5.3,9.558l9.011,35.939c0.594,2.37,2.238,4.338,4.465,5.345 c1.049,0.474,2.173,0.71,3.295,0.71c1.26,0,2.518-0.297,3.666-0.89c0.768-0.396,7.419-3.927,12.283-9.835 c1.1,0.313,3.288,1.406,5.766,3.81c2.721,2.639,8.468,7.066,16.393,7.066c4.826,0,9.442-1.651,13.722-4.908 c5.444-4.145,7.87-5.08,8.765-5.286c0.362,0.328,0.749,0.688,1.16,1.068c4.441,4.119,11.153,10.344,19.048,10.344 c3.081,0,6.024-0.972,8.51-2.811c1.645-1.217,3.23-2.51,4.763-3.759c1.885-1.535,4.882-3.978,6.516-4.813 c3.428,1.282,9.059,3.966,11.288,6.877c1.415,1.847,3.564,2.987,5.886,3.122c0.156,0.01,0.311,0.014,0.466,0.014 c2.158,0,4.232-0.873,5.743-2.432c1.175-1.211,28.759-30.148,28.759-72.148c0-2.255-0.952-4.405-2.621-5.922 C291.501,176.837,289.581,176.102,287.601,176.102L287.601,176.102z" style="fill: rgb(47, 107, 37);"/></g><g id="__id99_s6bim1g3ik"><path d="M157.957,207.634c-8.118,2.191-16.198,4.556-24.1,7.108l9.011,35.939c0,0,6.192-3.193,10.148-8.277 c3.956-5.084,11.481-1.865,17.137,3.62c3.443,3.34,11.097,8.081,19.699,1.534c8.602-6.548,14.357-8.952,18.592-5.197 c4.234,3.754,12.79,13.025,18.978,8.447c6.187-4.577,12.42-11.113,16.997-10.27c0,0,11.68,3.614,16.68,10.143 c0,0,11.289-11.652,19.131-30.653C244.222,233.714,191.662,219.733,157.957,207.634z" style="fill: rgb(126, 217, 87);"/></g><g id="__id100_s6bim1g3ik"><path d="M138.675,213.219c-1.611,0.501-3.22,1.008-4.818,1.523l9.011,35.939c0,0,6.192-3.193,10.148-8.277 c3.956-5.084,11.481-1.865,17.137,3.62c3.443,3.34,11.097,8.081,19.699,1.534c8.602-6.548,14.357-8.952,18.592-5.197 c4.234,3.754,12.79,13.025,18.978,8.447c6.187-4.577,12.42-11.113,16.997-10.27c0,0,11.68,3.614,16.68,10.143 c0,0,5.891-6.081,12.118-16.616C244.643,237.505,179.932,241.338,138.675,213.219z" style="fill: rgb(0, 191, 99);"/></g><g id="__id101_s6bim1g3ik"><path d="M308.085,260.886c-7.001,0-10.597-3.718-13.486-6.705c-2.712-2.804-4.288-4.267-7.737-4.267 s-5.025,1.463-7.737,4.267c-2.889,2.987-6.485,6.705-13.486,6.705c-7.001,0-10.596-3.718-13.485-6.705 c-2.711-2.804-4.287-4.267-7.735-4.267c-3.447,0-5.022,1.463-7.733,4.267c-2.889,2.987-6.484,6.705-13.485,6.705 s-10.596-3.718-13.485-6.705c-2.711-2.804-4.287-4.267-7.735-4.267c-3.448,0-5.023,1.463-7.734,4.267 c-2.889,2.987-6.484,6.705-13.485,6.705c-7,0-10.596-3.718-13.484-6.705c-2.711-2.804-4.286-4.267-7.733-4.267 c-3.447,0-5.022,1.463-7.732,4.267c-2.888,2.987-6.483,6.705-13.483,6.705c-7,0-10.595-3.718-13.483-6.706 c-2.71-2.803-4.285-4.266-7.731-4.266c-2.209,0-4-1.791-4-4s1.791-4,4-4c7,0,10.595,3.718,13.483,6.706 c2.71,2.803,4.285,4.266,7.731,4.266c3.447,0,5.022-1.463,7.732-4.267c2.888-2.987,6.483-6.705,13.483-6.705 s10.596,3.718,13.484,6.705c2.71,2.804,4.286,4.267,7.733,4.267c3.448,0,5.023-1.463,7.734-4.267 c2.889-2.987,6.484-6.705,13.485-6.705c7.001,0,10.597,3.718,13.486,6.705c2.711,2.804,4.286,4.267,7.734,4.267 s5.023-1.463,7.734-4.267c2.889-2.987,6.484-6.705,13.484-6.705c7.002,0,10.597,3.718,13.486,6.705 c2.711,2.804,4.286,4.267,7.734,4.267c3.449,0,5.024-1.463,7.736-4.267c2.889-2.987,6.485-6.705,13.487-6.705 s10.598,3.718,13.487,6.705c2.711,2.804,4.287,4.267,7.736,4.267c2.209,0,4,1.791,4,4S310.294,260.886,308.085,260.886z" style="fill: rgb(47, 107, 37);"/></g><g id="__id102_s6bim1g3ik"><path d="M156.855,190.377c-1.669,0-3.227-1.053-3.79-2.723c-0.706-2.093,0.418-4.362,2.511-5.068 c23.732-8.007,86.061-13.015,88.703-13.224c2.205-0.186,4.128,1.469,4.303,3.672c0.175,2.202-1.469,4.129-3.671,4.303 c-0.637,0.051-63.979,5.138-86.777,12.829C157.71,190.31,157.279,190.377,156.855,190.377z" style="fill: rgb(47, 107, 37);"/></g></svg>